<?xml version="1.0" encoding="utf-8"?>
<svg xmlns="http://www.w3.org/2000/svg" viewBox="0 0 64 64" fill="#ffffff"><path d="M 48.382813 0.00390625 C 47.980469 0.0273438 47.585938 0.175781 47.265625 0.429688 L 42.765625 3.96875 C 42.171875 2.660156 40.707031 1.929688 39.269531 2.3125 C 37.925781 2.671875 37.050781 3.898438 37.058594 5.226563 L 33.488281 7.585938 C 32.535156 8.214844 32.035156 9.320313 32.160156 10.429688 L 17.730469 14.300781 C 15.871094 12.859375 13.539063 12 11 12 C 4.929688 12 0 16.929688 0 23 C 0 29.070313 4.929688 34 11 34 C 11.140625 34 11.289063 34 11.429688 33.988281 L 20.9375 46 L 18.621094 46 C 17.855469 46 17.171875 46.425781 16.828125 47.105469 L 15.382813 50 L 7 50 C 4.242188 50 2 52.242188 2 55 L 2 59 C 2 60.652344 3.347656 62 5 62 L 55 62 C 56.652344 62 58 60.652344 58 59 L 58 55 C 58 52.242188 55.757813 50 53 50 L 44.617188 50 L 43.171875 47.105469 C 42.832031 46.425781 42.144531 46 41.382813 46 L 37.480469 46 L 21.597656 25.9375 C 21.820313 25.160156 21.949219 24.351563 21.988281 23.511719 L 34.75 20.089844 C 35.195313 21.117188 36.175781 21.820313 37.316406 21.890625 L 41.589844 22.144531 C 42.121094 23.078125 43.113281 23.664063 44.1875 23.664063 C 44.445313 23.664063 44.703125 23.632813 44.964844 23.5625 C 46.398438 23.179688 47.300781 21.808594 47.160156 20.378906 L 52.828125 21.195313 C 52.921875 21.210938 53.019531 21.21875 53.113281 21.21875 C 53.558594 21.21875 54 21.066406 54.351563 20.785156 L 59.484375 16.75 C 60.113281 16.257813 60.386719 15.4375 60.175781 14.660156 L 59.65625 12.71875 C 59.492188 12.105469 59.0625 11.617188 58.472656 11.378906 C 57.886719 11.144531 57.238281 11.195313 56.695313 11.519531 L 51.949219 14.363281 L 45.121094 12.566406 L 44.90625 11.757813 L 49.921875 6.789063 L 55.453125 6.878906 C 56.066406 6.882813 56.671875 6.609375 57.0625 6.109375 C 57.453125 5.609375 57.582031 4.972656 57.417969 4.359375 L 56.894531 2.414063 C 56.691406 1.640625 56.042969 1.066406 55.25 0.953125 L 48.785156 0.0234375 C 48.652344 0.00390625 48.515625 -0.00390625 48.382813 0.00390625 Z M 48.5 2 L 54.964844 2.929688 L 55.484375 4.875 L 49.953125 4.785156 C 49.4375 4.769531 48.890625 4.988281 48.511719 5.367188 L 44.308594 9.53125 L 43.371094 6.039063 Z M 40.046875 4.210938 C 40.488281 4.210938 40.890625 4.503906 41.011719 4.953125 L 42.296875 9.75 L 42.824219 11.714844 L 44.078125 16.402344 L 44.722656 18.800781 L 44.722656 18.804688 L 45.152344 20.40625 C 45.292969 20.9375 44.976563 21.488281 44.445313 21.628906 C 43.914063 21.773438 43.363281 21.457031 43.21875 20.921875 L 39.078125 5.46875 C 38.933594 4.9375 39.253906 4.386719 39.785156 4.242188 C 39.871094 4.222656 39.957031 4.210938 40.046875 4.210938 Z M 37.503906 7.328125 L 40.925781 20.101563 L 37.4375 19.890625 C 37.007813 19.867188 36.644531 19.566406 36.53125 19.152344 L 36.390625 18.621094 C 36.390625 18.617188 36.390625 18.613281 36.390625 18.609375 L 34.316406 10.890625 L 34.171875 10.34375 C 34.0625 9.929688 34.226563 9.492188 34.589844 9.253906 Z M 32.644531 12.371094 L 34.199219 18.171875 L 21.890625 21.460938 C 21.601563 19.371094 20.71875 17.460938 19.421875 15.910156 Z M 57.722656 13.234375 L 58.246094 15.179688 L 53.117188 19.21875 L 46.65625 18.285156 L 45.71875 14.792969 L 51.4375 16.296875 C 51.957031 16.433594 52.519531 16.355469 52.980469 16.078125 Z M 11 14 C 12.480469 14 13.878906 14.359375 15.109375 15 C 15.878906 15.390625 16.601563 15.898438 17.21875 16.5 C 18.699219 17.921875 19.699219 19.839844 19.9375 21.980469 C 19.980469 22.320313 20 22.660156 20 23 C 20 23.289063 19.988281 23.578125 19.949219 23.859375 C 19.949219 23.929688 19.949219 23.992188 19.929688 24.0625 C 19.839844 24.851563 19.648438 25.609375 19.359375 26.320313 C 18.199219 29.25 15.539063 31.421875 12.328125 31.902344 C 11.890625 31.96875 11.449219 32 11 32 C 10.589844 32 10.1875 31.96875 9.789063 31.921875 C 5.398438 31.328125 2 27.550781 2 23 C 2 18.039063 6.039063 14 11 14 Z M 11 18 C 8.242188 18 6 20.242188 6 23 C 6 25.757813 8.242188 28 11 28 C 13.757813 28 16 25.757813 16 23 C 16 20.242188 13.757813 18 11 18 Z M 11 20 C 12.652344 20 14 21.347656 14 23 C 14 24.652344 12.652344 26 11 26 C 9.347656 26 8 24.652344 8 23 C 8 21.347656 9.347656 20 11 20 Z M 20.75 28.078125 L 34.929688 46 L 23.480469 46 L 13.710938 33.660156 C 16.769531 32.890625 19.320313 30.820313 20.75 28.078125 Z M 18.617188 48 L 41.382813 48 L 42.382813 50 L 17.617188 50 Z M 7 52 L 53 52 C 54.652344 52 56 53.347656 56 55 L 56 59 C 56 59.550781 55.550781 60 55 60 L 5 60 C 4.449219 60 4 59.550781 4 59 L 4 55 C 4 53.347656 5.347656 52 7 52 Z M 8 54 C 7.449219 54 7 54.449219 7 55 L 7 57 C 7 57.550781 7.449219 58 8 58 C 8.550781 58 9 57.550781 9 57 L 9 55 C 9 54.449219 8.550781 54 8 54 Z M 13 54 C 12.449219 54 12 54.449219 12 55 L 12 57 C 12 57.550781 12.449219 58 13 58 C 13.550781 58 14 57.550781 14 57 L 14 55 C 14 54.449219 13.550781 54 13 54 Z M 18 54 C 17.449219 54 17 54.449219 17 55 L 17 57 C 17 57.550781 17.449219 58 18 58 C 18.550781 58 19 57.550781 19 57 L 19 55 C 19 54.449219 18.550781 54 18 54 Z M 23 54 C 22.449219 54 22 54.449219 22 55 L 22 57 C 22 57.550781 22.449219 58 23 58 C 23.550781 58 24 57.550781 24 57 L 24 55 C 24 54.449219 23.550781 54 23 54 Z M 28 54 C 27.449219 54 27 54.449219 27 55 L 27 57 C 27 57.550781 27.449219 58 28 58 C 28.550781 58 29 57.550781 29 57 L 29 55 C 29 54.449219 28.550781 54 28 54 Z M 33 54 C 32.449219 54 32 54.449219 32 55 L 32 57 C 32 57.550781 32.449219 58 33 58 C 33.550781 58 34 57.550781 34 57 L 34 55 C 34 54.449219 33.550781 54 33 54 Z M 38 54 C 37.449219 54 37 54.449219 37 55 L 37 57 C 37 57.550781 37.449219 58 38 58 C 38.550781 58 39 57.550781 39 57 L 39 55 C 39 54.449219 38.550781 54 38 54 Z M 43 54 C 42.449219 54 42 54.449219 42 55 L 42 57 C 42 57.550781 42.449219 58 43 58 C 43.550781 58 44 57.550781 44 57 L 44 55 C 44 54.449219 43.550781 54 43 54 Z M 48 54 C 47.449219 54 47 54.449219 47 55 L 47 57 C 47 57.550781 47.449219 58 48 58 C 48.550781 58 49 57.550781 49 57 L 49 55 C 49 54.449219 48.550781 54 48 54 Z M 53 54 C 52.449219 54 52 54.449219 52 55 L 52 57 C 52 57.550781 52.449219 58 53 58 C 53.550781 58 54 57.550781 54 57 L 54 55 C 54 54.449219 53.550781 54 53 54 Z" fill="#ffffff"/></svg>
